<?xml version="1.0" standalone="no"?>
<!DOCTYPE svg PUBLIC "-//W3C//DTD SVG 20010904//EN"
"http://www.w3.org/TR/2001/REC-SVG-20010904/DTD/svg10.dtd">
<svg version="1.0" xmlns="http://www.w3.org/2000/svg"
width="1200.000000pt" height="1200.000000pt" viewBox="0 0 1200.000000 1200.000000"
preserveAspectRatio="xMidYMid meet">

<g transform="translate(0.000000,1200.000000) scale(0.100000,-0.100000)"
fill="#000000" stroke="none">
<path d="M1865 9888 c-192 -36 -368 -213 -405 -407 -50 -267 114 -528 375
-596 180 -46 397 17 511 149 182 210 179 501 -7 701 -120 128 -300 186 -474
153z m214 -147 c119 -37 223 -146 251 -262 19 -78 9 -193 -23 -260 -32 -67
-118 -152 -182 -180 -191 -85 -414 -1 -503 189 -23 49 -27 70 -27 152 0 83 4
103 28 155 82 176 274 263 456 206z"/>
<path d="M5495 9495 c-959 -92 -1882 -441 -2559 -969 -707 -551 -1147 -1288
-1268 -2123 l-22 -152 -46 -17 c-92 -35 -184 -105 -261 -198 -160 -193 -236
-245 -402 -271 -192 -30 -334 -96 -459 -213 -176 -166 -252 -338 -252 -567 1
-101 5 -132 26 -197 53 -160 133 -267 305 -405 102 -82 189 -180 241 -271 67
-119 88 -219 112 -549 20 -270 86 -421 256 -584 167 -159 346 -248 563 -279
141 -21 397 -8 681 35 308 46 540 57 671 31 161 -33 235 -74 436 -244 396
-336 771 -464 1194 -407 126 16 209 35 504 115 274 74 388 97 540 109 226 18
410 -9 817 -120 359 -97 444 -112 648 -113 135 0 195 4 260 18 181 39 373 124
547 242 101 68 138 97 283 222 93 80 205 141 310 169 52 15 104 18 265 17 181
0 224 -4 450 -39 234 -37 264 -39 475 -39 247 -1 285 5 441 65 150 58 344 207
434 334 99 138 139 268 155 498 16 236 21 276 47 367 49 173 142 295 346 459
101 82 171 167 218 266 53 112 69 181 69 306 0 123 -22 224 -70 320 -131 262
-353 415 -663 458 -137 19 -213 71 -372 257 -85 99 -159 158 -242 196 -72 33
-73 33 -78 78 -83 627 -291 1133 -661 1610 -105 135 -328 368 -470 490 -680
586 -1582 960 -2619 1086 -171 21 -672 27 -850 9z m773 -141 c263 -24 532 -72
810 -144 855 -222 1625 -670 2118 -1230 499 -568 753 -1212 781 -1979 5 -151
9 -177 25 -193 27 -27 72 -23 98 9 21 27 22 34 16 156 -3 70 -3 127 0 127 21
0 125 -84 177 -144 34 -39 100 -110 147 -157 118 -118 156 -136 409 -183 237
-44 428 -209 507 -441 23 -67 27 -97 27 -185 0 -120 -21 -196 -79 -290 -44
-71 -72 -101 -180 -192 -192 -162 -301 -304 -356 -463 -32 -95 -52 -222 -67
-445 -12 -175 -28 -245 -76 -339 -92 -181 -311 -351 -523 -405 -176 -46 -354
-41 -777 21 -218 32 -275 37 -445 37 -226 1 -314 -15 -457 -84 -77 -38 -116
-66 -308 -226 -184 -153 -418 -282 -600 -329 -71 -19 -136 -28 -226 -32 -201
-9 -339 14 -739 126 -293 81 -416 103 -622 109 -269 7 -368 -10 -932 -162
-281 -76 -481 -94 -672 -61 -222 39 -456 156 -679 339 -44 36 -116 96 -160
132 -96 79 -209 135 -330 166 -79 20 -113 23 -285 22 -170 0 -227 -5 -445 -37
-334 -49 -476 -60 -612 -47 -194 18 -320 66 -470 179 -195 147 -273 293 -293
549 -24 296 -32 355 -55 437 -57 197 -164 344 -375 515 -171 138 -244 266
-256 445 -12 168 56 345 181 471 114 115 249 180 423 204 191 26 270 78 486
324 38 43 93 94 122 112 29 19 54 34 56 34 2 0 2 -59 0 -131 -3 -124 -3 -132
19 -155 30 -32 72 -31 98 2 19 24 21 40 21 146 0 146 22 365 56 546 140 766
566 1434 1240 1944 624 472 1461 795 2319 893 320 36 556 39 883 9z"/>
<path d="M4486 6686 c-152 -64 -241 -197 -240 -356 2 -109 31 -179 108 -255
82 -82 138 -107 247 -113 104 -5 162 11 241 68 188 134 209 407 45 572 -73 73
-142 102 -251 105 -79 3 -99 0 -150 -21z m67 -100 c18 -7 45 -28 60 -45 37
-45 43 -89 19 -144 -47 -107 -191 -115 -252 -14 -70 114 51 255 173 203z"/>
<path d="M6987 6686 c-157 -66 -243 -201 -236 -369 7 -143 80 -254 214 -326
45 -24 60 -26 160 -26 106 0 112 1 173 34 75 41 135 103 170 179 24 50 27 70
27 157 0 88 -3 107 -27 157 -34 74 -112 152 -186 186 -83 39 -213 43 -295 8z
m113 -114 c14 -10 33 -34 42 -53 62 -120 -59 -249 -182 -194 -116 52 -110 214
10 264 33 14 99 5 130 -17z"/>
<path d="M5300 5707 c-80 -40 -76 -229 6 -325 120 -140 343 -140 514 0 l55 45
45 -40 c229 -205 580 -107 580 162 0 93 -15 138 -50 156 -30 16 -53 12 -83
-13 -15 -14 -17 -27 -12 -96 5 -70 4 -85 -13 -112 -27 -42 -78 -64 -149 -64
-82 0 -145 33 -226 120 -87 92 -97 92 -190 -3 -82 -83 -129 -109 -208 -115
-72 -5 -121 11 -155 51 -25 30 -26 35 -20 113 5 69 3 85 -12 102 -23 27 -52
34 -82 19z"/>
<path d="M10715 8519 c-281 -39 -438 -334 -316 -594 38 -82 110 -153 198 -197
64 -31 73 -33 178 -33 98 0 116 3 168 27 80 38 170 126 210 207 30 62 32 72
32 176 0 99 -3 116 -28 169 -82 176 -254 271 -442 245z m190 -143 c145 -72
209 -243 144 -386 -36 -78 -71 -114 -141 -149 -109 -55 -242 -39 -332 40 -182
160 -108 458 129 520 53 14 143 3 200 -25z"/>
<path d="M290 8209 c-111 -22 -208 -99 -258 -207 -38 -83 -38 -192 2 -279 35
-76 104 -144 184 -181 81 -38 193 -38 274 0 191 88 264 296 172 485 -63 129
-229 210 -374 182z m128 -121 c91 -23 172 -131 172 -231 0 -81 -73 -181 -155
-213 -101 -38 -221 5 -280 100 -26 43 -30 59 -30 120 1 81 15 116 72 171 35
34 103 63 151 64 13 1 44 -4 70 -11z"/>
<path d="M11533 6911 c-66 -24 -101 -49 -152 -107 -60 -68 -84 -140 -79 -239
6 -137 75 -243 198 -303 48 -24 67 -27 150 -27 85 0 101 3 153 29 70 36 130
99 165 174 23 48 27 71 27 142 0 71 -4 94 -26 141 -37 79 -90 133 -167 171
-85 42 -188 49 -269 19z m205 -117 c85 -35 142 -120 142 -214 0 -133 -101
-230 -238 -230 -239 0 -314 328 -99 435 60 29 137 33 195 9z"/>
</g>
</svg>
